<svg xmlns="http://www.w3.org/2000/svg" viewBox="0 0 400 300" width="400" height="300">
  <defs>
    <linearGradient id="bg" x1="0" y1="0" x2="1" y2="1">
      <stop offset="0" stop-color="#0e141c"/>
      <stop offset="1" stop-color="#141c26"/>
    </linearGradient>
  </defs>
  <rect width="400" height="300" fill="url(#bg)"/>
  <g stroke="#ffffff" stroke-opacity="0.06" stroke-width="6" stroke-linecap="round" stroke-linejoin="round" fill="none" transform="translate(200,150) rotate(-14) scale(1.7)">
    <line x1="-110" y1="0" x2="110" y2="0"/>
    <rect x="-98" y="-42" width="10" height="84" rx="3"/>
    <rect x="-76" y="-42" width="10" height="84" rx="3"/>
    <rect x="66" y="-42" width="10" height="84" rx="3"/>
    <rect x="88" y="-42" width="10" height="84" rx="3"/>
  </g>
  <g stroke="#a3e635" stroke-width="4" fill="none" stroke-linecap="round" stroke-linejoin="round">
    <line x1="338" y1="34" x2="370" y2="34"/>
    <rect x="330" y="26" width="9" height="16" rx="2"/>
    <rect x="369" y="26" width="9" height="16" rx="2"/>
  </g>
  <g fill="none" stroke-linecap="round" stroke-linejoin="round">
    <g stroke="#a3e635" stroke-width="7">
      <line x1="115" y1="248" x2="295" y2="248"/>
      <rect x="115" y="232" width="18" height="32" rx="5"/>
      <rect x="137" y="232" width="10" height="32" rx="4"/>
      <rect x="263" y="232" width="10" height="32" rx="4"/>
      <rect x="277" y="232" width="18" height="32" rx="5"/>
      <line x1="183" y1="181" x2="195" y2="248"/>
      <line x1="183" y1="181" x2="228" y2="183"/>
      <line x1="228" y1="183" x2="236" y2="216"/>
      <line x1="236" y1="216" x2="242" y2="250"/>
      <line x1="230" y1="252" x2="255" y2="252"/>
    </g>
    <g stroke="#f8fafc" stroke-width="7">
      <line x1="183" y1="181" x2="190" y2="210"/>
      <line x1="228" y1="183" x2="230" y2="198"/>
    </g>
    <circle cx="162" cy="147" r="11" stroke="#a3e635" stroke-width="6"/>
  </g>
  <text x="200" y="272" text-anchor="middle" font-family="Arial, Helvetica, sans-serif" font-size="22" letter-spacing="4" fill="#64748b">FULL BODY</text>
</svg>